<svg xmlns="http://www.w3.org/2000/svg" style="display: none;">
  <defs>
    <!-- Wedding Icon (Chandelier) -->
    <symbol id="wedding-icon" viewBox="0 0 43 52" fill="none" stroke="currentColor" stroke-width="2" stroke-miterlimit="10" stroke-linecap="round" stroke-linejoin="round">
      <path d="M39.009 40.7161V26.4062"/>
      <path d="M39.009 47.6458V44.2373"/>
      <path d="M27.5813 5.79053C33.37 8.0189 37.7121 13.1889 38.7634 19.4605"/>
      <path d="M14.8229 5.79053C12.6257 6.6356 10.6388 7.90522 8.95972 9.49777"/>
      <path d="M6.65478 12.1602C5.12259 14.3262 4.06122 16.8483 3.62158 19.5746"/>
      <path d="M3.39526 47.6461V26.4438"/>
      <path d="M35.9907 47.6461V26.5747"/>
      <path d="M25.6738 8.31982C30.7714 9.93954 34.6789 14.2534 35.7181 19.5804"/>
      <path d="M6.71509 19.4366C7.79557 14.176 11.6779 9.92549 16.7292 8.31885"/>
      <path d="M6.41333 47.6457V26.4736"/>
      <path d="M35.9907 37.6616H39.0088"/>
      <path d="M3.39526 37.6616H6.41337"/>
      <path d="M8.20503 51.0001H1.60362C1.27022 51.0001 1 50.7299 1 50.3965V48.8532C1 48.1865 1.54054 47.646 2.20724 47.646H7.60131C8.26801 47.646 8.80855 48.1865 8.80855 48.8532V50.3965C8.80865 50.7299 8.53833 51.0001 8.20503 51.0001Z"/>
      <path d="M40.8006 51.0001H34.1993C33.8659 51.0001 33.5957 50.7299 33.5957 50.3965V48.8532C33.5957 48.1865 34.1362 47.646 34.8029 47.646H40.197C40.8637 47.646 41.4043 48.1865 41.4043 48.8532V50.3965C41.4043 50.7299 41.1339 51.0001 40.8006 51.0001Z"/>
      <path d="M8.66895 21.5133C13.4215 19.4781 17.3158 15.8313 19.6679 11.2578"/>
      <path d="M22.7363 11.2578C25.0663 15.788 28.9114 19.4097 33.6035 21.456"/>
      <path d="M8.45354 25.1045C13.8942 33.0814 13.4475 40.5944 7.1145 47.6457"/>
      <path d="M35.2897 47.6459C28.9728 40.6127 28.5121 33.1197 33.9084 25.166"/>
      <path d="M9.14589 22.8594C9.14589 22.6471 9.07416 22.4515 8.95374 22.2956C8.76772 22.0547 8.6472 21.7638 8.67094 21.4604C8.68503 21.2809 8.6468 21.0954 8.55002 20.9277C8.45454 20.7624 8.31571 20.6377 8.15625 20.56C7.85132 20.4112 7.57728 20.1955 7.41118 19.8995C7.33281 19.7598 7.21692 19.6387 7.06813 19.5527C6.90283 19.4573 6.72034 19.4188 6.54328 19.4312C6.20475 19.4548 5.85957 19.405 5.56782 19.2318C5.4301 19.15 5.26923 19.103 5.0974 19.103C4.88513 19.103 4.68955 19.1748 4.53362 19.2952C4.29277 19.4812 4.00183 19.6017 3.69841 19.578C3.51893 19.5639 3.33342 19.6021 3.16571 19.6989C3.00042 19.7944 2.87587 19.9332 2.79801 20.0927C2.64921 20.3976 2.43352 20.6716 2.13754 20.8377C1.9978 20.9161 1.87678 21.032 1.79076 21.1808C1.69529 21.3461 1.65686 21.5286 1.66923 21.7056C1.69288 22.0442 1.64308 22.3893 1.46984 22.6811C1.38805 22.8188 1.34106 22.9797 1.34106 23.1515C1.34106 23.3638 1.41279 23.5594 1.53322 23.7153C1.71923 23.9561 1.83976 24.2471 1.81601 24.5505C1.80193 24.73 1.84016 24.9155 1.93694 25.0832C2.03241 25.2485 2.17125 25.3731 2.3307 25.4509C2.63563 25.5997 2.90968 25.8154 3.07577 26.1114C3.15414 26.2511 3.27004 26.3721 3.41883 26.4582C3.58412 26.5536 3.76662 26.5921 3.94368 26.5797C4.28221 26.556 4.62738 26.6058 4.91913 26.7791C5.05686 26.8609 5.21772 26.9079 5.38955 26.9079C5.60183 26.9079 5.7974 26.8361 5.95334 26.7157C6.19418 26.5297 6.48513 26.4092 6.78855 26.4329C6.96803 26.447 7.15354 26.4088 7.32124 26.312C7.48654 26.2165 7.61118 26.0777 7.68895 25.9182C7.83774 25.6133 8.05344 25.3392 8.34941 25.1731C8.48915 25.0948 8.61018 24.979 8.69609 24.8301C8.79156 24.6648 8.83 24.4823 8.81762 24.3052C8.79398 23.9667 8.84378 23.6215 9.01702 23.3298C9.09891 23.1921 9.14589 23.0312 9.14589 22.8594Z"/>
      <path d="M41.0631 22.8594C41.0631 22.6471 40.9914 22.4515 40.871 22.2956C40.685 22.0547 40.5644 21.7638 40.5882 21.4604C40.6023 21.2809 40.564 21.0954 40.4673 20.9277C40.3718 20.7624 40.2329 20.6377 40.0735 20.56C39.7686 20.4112 39.4945 20.1955 39.3284 19.8995C39.2501 19.7598 39.1342 19.6387 38.9854 19.5527C38.8201 19.4573 38.6376 19.4188 38.4605 19.4312C38.122 19.4548 37.7768 19.405 37.4851 19.2318C37.3473 19.15 37.1865 19.103 37.0146 19.103C36.8024 19.103 36.6068 19.1748 36.4509 19.2952C36.21 19.4812 35.9191 19.6017 35.6156 19.578C35.4362 19.5639 35.2507 19.6021 35.083 19.6989C34.9177 19.7944 34.7931 19.9332 34.7152 20.0927C34.5665 20.3976 34.3508 20.6716 34.0548 20.8377C33.915 20.9161 33.794 21.032 33.708 21.1808C33.6125 21.3461 33.5741 21.5286 33.5865 21.7056C33.6101 22.0442 33.5603 22.3893 33.3871 22.6811C33.3053 22.8188 33.2583 22.9797 33.2583 23.1515C33.2583 23.3638 33.33 23.5594 33.4505 23.7153C33.6365 23.9561 33.757 24.2471 33.7333 24.5505C33.7192 24.73 33.7574 24.9155 33.8542 25.0832C33.9496 25.2485 34.0885 25.3731 34.2479 25.4509C34.5529 25.5997 34.8269 25.8154 34.993 26.1114C35.0714 26.2511 35.1873 26.3721 35.3361 26.4582C35.5014 26.5536 35.6839 26.5921 35.8609 26.5797C36.1994 26.556 36.5446 26.6058 36.8364 26.7791C36.9741 26.8609 37.135 26.9079 37.3068 26.9079C37.5191 26.9079 37.7146 26.8361 37.8706 26.7157C38.1113 26.5297 38.4024 26.4092 38.7058 26.4329C38.8853 26.447 39.0708 26.4088 39.2385 26.312C39.4038 26.2165 39.5284 26.0777 39.6062 25.9182C39.755 25.6133 39.9707 25.3392 40.2667 25.1731C40.4064 25.0948 40.5274 24.979 40.6134 24.8301C40.7089 24.6648 40.7473 24.4823 40.735 24.3052C40.7113 23.9667 40.7611 23.6215 40.9344 23.3298C41.0161 23.1921 41.0631 23.0312 41.0631 22.8594Z"/>
      <path d="M26.3993 7.59418L21.4867 12.5068C21.3296 12.6639 21.0747 12.6639 20.9176 12.5068L16.005 7.59418C12.165 3.75414 17.0482 -1.29979 20.9384 2.1486C21.0883 2.2815 21.3159 2.2815 21.4659 2.1486C25.3561 -1.29979 30.2393 3.75424 26.3993 7.59418Z"/>
    </symbol>
    
    <!-- Logo Icon -->
    <symbol id="logo-icon" viewBox="0 0 145 36" fill="currentColor">
      <path d="M71.5588 0.461769C71.9792 -0.15977 73.0454 -0.154704 73.4472 0.482035C73.6896 0.909343 73.7947 1.43799 74.2032 1.75382C75.0575 2.46657 76.0831 2.92259 77.029 3.49684C78.2596 4.20282 79.4343 5.01521 80.4853 5.97117C82.6838 7.89152 84.8468 10.023 85.9995 12.754C87.9997 12.5531 90.122 12.5075 91.9578 13.4499C93.6529 14.3873 95.1395 15.7232 96.2108 17.3345C97.8042 19.8967 98.3704 23.0145 98.0381 25.9905C99.9926 25.5243 102.111 25.5615 103.991 26.3114C105.703 26.8957 107.148 28.0257 108.789 28.7604C111.143 29.8345 113.581 31.0725 116.242 30.9797C119.247 30.7229 122.309 29.9038 124.719 28.0223C124.19 26.9616 123.734 25.705 124.175 24.5363C124.543 23.4553 125.818 22.5737 126.962 23.0027C127.694 23.3574 128.333 24.0448 128.442 24.8724C128.625 25.8401 128.431 26.8434 127.986 27.7149C129.547 28.6692 131.42 28.7637 133.203 28.7705C135.805 28.7164 138.404 28.507 141.009 28.5594C141.535 28.5712 142.055 28.6793 142.574 28.7705C143.031 28.5492 143.631 28.4074 144.059 28.7772C144.711 29.2383 145.289 30.1233 144.842 30.9121C144.471 31.586 143.592 31.5539 142.947 31.3816C142.145 31.1452 141.338 30.8766 140.494 30.88C137.104 30.8564 133.708 31.3039 130.323 30.9695C128.948 30.8428 127.674 30.2703 126.487 29.5964C123.777 31.9694 120.139 33.0149 116.603 33.3121C113.442 33.5688 110.502 32.1754 107.714 30.8868C105.802 30.0237 104.127 28.6134 102.027 28.1962C100.537 27.8416 99.006 28.1625 97.5482 28.5188C97.0685 30.1706 96.1769 31.684 95.0429 32.9726C94.0224 34.1701 92.7968 35.2747 91.2916 35.8101C90.3372 36.1242 89.0473 36.1242 88.4099 35.2223C87.4979 34.1009 87.881 32.4389 88.6998 31.3732C90.4034 29.1319 92.9986 27.8162 95.5345 26.7285C96.0667 24.2289 95.7057 21.562 94.5818 19.2718C94.0902 18.2449 93.3003 17.4004 92.4494 16.6606C91.6866 16.0222 90.8441 15.4243 89.8575 15.1963C88.8303 14.9041 87.7556 14.9683 86.7063 15.0477C87.3064 17.7753 87.1013 20.7395 85.8317 23.256C84.7959 25.3622 83.3788 27.3822 81.3345 28.6185C79.8903 29.5711 78.0426 30.0997 76.3492 29.5356C74.7422 28.8988 73.4133 27.4987 72.9912 25.8131C72.4386 23.381 73.1133 20.7141 74.7558 18.836C77.0544 16.1252 80.209 14.2049 83.5975 13.1662C82.3007 10.7425 80.248 8.84241 78.1511 7.10784C76.4136 5.66884 74.2625 4.85645 72.4962 3.46137C70.9418 4.73147 69.0331 5.45773 67.4363 6.66702C65.0869 8.47759 62.8646 10.5702 61.3916 13.1678C64.7682 14.1745 67.8957 16.0881 70.1892 18.7668C71.5724 20.3409 72.3352 22.4538 72.1826 24.5498C72.1843 26.2945 71.2198 27.9345 69.8044 28.9276C68.7687 29.7501 67.3634 29.8818 66.0972 29.6724C63.819 29.1015 61.9154 27.5257 60.5881 25.6358C59.4134 23.9417 58.4455 22.0484 58.1268 19.9946C57.8895 18.3546 57.9454 16.6724 58.2946 15.0527C57.3826 14.9767 56.4571 14.9075 55.5553 15.1118C54.1348 15.3331 52.955 16.2468 51.9498 17.2163C50.3157 18.7634 49.5529 21.0063 49.3004 23.1902C49.1325 24.3674 49.2665 25.5547 49.4597 26.7201C51.6922 27.6727 53.9365 28.7975 55.6333 30.5709C56.4164 31.4171 57.186 32.4626 57.1063 33.6752C57.1504 34.5822 56.6436 35.5635 55.7452 35.8641C54.7569 36.1766 53.6822 35.9131 52.8109 35.4047C51.3548 34.6092 50.2106 33.3695 49.2292 32.0589C48.546 31.0928 47.9528 30.0524 47.5832 28.9259C47.5019 28.7587 47.4764 28.4986 47.2425 28.4783C45.722 28.0611 44.0879 27.8449 42.5487 28.2993C40.6485 28.8043 39.1009 30.0727 37.3295 30.8665C34.5444 32.1636 31.6051 33.5553 28.4437 33.3138C24.8823 33.0317 21.2277 31.9643 18.4985 29.5778C17.3001 30.326 15.9542 30.8749 14.5337 30.9864C11.1503 31.2938 7.76004 30.8412 4.37321 30.8851C3.25444 30.8631 2.25263 31.5151 1.13725 31.4779C0.511751 31.4999 -0.0476344 30.9053 0.00321883 30.2872C-0.0035616 29.6302 0.525312 29.1471 0.981297 28.7468C1.39999 28.4124 1.97632 28.556 2.41366 28.7722C2.94932 28.6877 3.48158 28.5678 4.02402 28.5594C6.63109 28.5087 9.23308 28.7181 11.8385 28.7705C13.6082 28.7587 15.4796 28.681 17.0221 27.7064C16.5017 26.7133 16.3203 25.5142 16.6695 24.4383C16.9577 23.7796 17.5171 23.2307 18.1833 22.9571C19.0105 22.7037 19.8648 23.175 20.4157 23.7678C21.3751 24.999 21.0548 26.7674 20.2665 28.002C22.5431 29.7991 25.4197 30.6165 28.2641 30.9408C30.0355 31.1401 31.7933 30.6452 33.424 30.0017C35.0547 29.3076 36.6871 28.6016 38.2177 27.7014C39.9773 26.6238 41.9504 25.7371 44.0489 25.6966C45.0287 25.6459 46.0085 25.776 46.9662 25.9719C46.6272 22.9858 47.2222 19.8663 48.8139 17.2974C49.8648 15.7216 51.3209 14.4312 52.9652 13.4921C54.8213 12.5142 56.9911 12.5412 59.0235 12.7574C59.5829 11.3066 60.5288 10.0399 61.5475 8.87788C62.8595 7.43043 64.2851 6.08264 65.8378 4.89192C67.1482 3.89543 68.6331 3.16918 70.0315 2.30949C70.4011 2.06797 70.7994 1.83996 71.0605 1.47515C71.2842 1.16607 71.3639 0.784361 71.5588 0.461769ZM60.6525 15.4412C60.1152 17.6352 60.2559 20.0267 61.2594 22.0704C62.1442 23.9249 63.363 25.7405 65.2039 26.7657C66.0192 27.2268 67.0227 27.6558 67.9533 27.2656C68.8721 26.8197 69.6281 25.9432 69.7688 24.9163C70.0756 23.1716 69.3738 21.3576 68.1907 20.074C66.1836 17.8665 63.5223 16.257 60.6525 15.4412ZM79.0529 18.0625C77.807 18.9981 76.6103 20.0706 75.8356 21.4404C75.2016 22.7324 74.888 24.3049 75.4576 25.6763C75.961 26.7116 77.0849 27.6608 78.3105 27.3703C79.4394 27.1085 80.4243 26.4279 81.2922 25.6864C82.2397 24.7356 82.989 23.5972 83.6009 22.4099C84.7061 20.275 84.9485 17.7466 84.3535 15.4277C82.4567 15.9969 80.6345 16.8667 79.0529 18.0625ZM90.1966 33.6448C92.1019 33.1027 93.3579 31.4103 94.397 29.8362C92.7935 30.8158 90.8899 31.7768 90.1966 33.6448ZM50.6395 29.8717C51.6667 31.4424 52.9364 33.1061 54.8213 33.66C54.1145 31.8191 52.2617 30.8074 50.6395 29.8717Z"/>
    </symbol>
  </defs>
</svg>

